<svg xmlns="http://www.w3.org/2000/svg" width="500" height="500" viewBox="0 0 500 500">
  <defs>
    <style>
      .cls-1, .cls-2, .cls-3, .cls-5 {
        fill: #fff;
      }

      .cls-1, .cls-2, .cls-4 {
        stroke: #fff;
        stroke-width: 1px;
        stroke-dasharray: 0.001 0;
      }

      .cls-1, .cls-2 {
        stroke-linecap: round;
      }

      .cls-2, .cls-4, .cls-5 {
        fill-rule: evenodd;
      }

      .cls-3 {
        font-size: 50px;
        font-family: "Bebas Neue";
      }

      .cls-4 {
        fill: none;
      }
    </style>
  </defs>
  <ellipse class="cls-1" cx="77.5" cy="227" rx="28.5" ry="28"/>
  <ellipse id="Ellipse_1_Kopie" data-name="Ellipse 1 Kopie" class="cls-1" cx="431.5" cy="227" rx="28.5" ry="28"/>
  <path id="Pfeil_5_1" data-name="Pfeil 5 1" class="cls-2" d="M94.009,203.48l52.633-50c-3.287,1.619-5.039,2.3-5.836,1.724,6.919-4.269,15.017-10.762,24.643-18.778-8.523,9.177-15.033,16.68-20.016,23.648-0.336-1.133.278-2.593,2.045-5.871L94.766,204.277Z"/>
  <path id="Pfeil_5_1_Kopie" data-name="Pfeil 5 1 Kopie" class="cls-2" d="M96.1,244.149l50,52.634c-1.619-3.287-2.3-5.039-1.724-5.836,4.269,6.919,10.762,15.017,18.778,24.642-9.177-8.522-16.68-15.032-23.648-20.015,1.133-.336,2.593.278,5.871,2.045L95.3,244.907Z"/>
  <path id="Pfeil_5_1_Kopie_2" data-name="Pfeil 5 1 Kopie 2" class="cls-2" d="M355.567,133.681l50,52.633c-1.62-3.287-2.3-5.039-1.724-5.836,4.269,6.919,10.762,15.017,18.778,24.642-9.177-8.522-16.68-15.032-23.649-20.015,1.134-.336,2.594.278,5.872,2.045L354.77,134.438Z"/>
  <path id="Pfeil_5_1_Kopie_2-2" data-name="Pfeil 5 1 Kopie 2" class="cls-2" d="M351.977,311.542l52.634-50c-3.287,1.619-5.039,2.3-5.836,1.724,6.919-4.269,15.017-10.763,24.642-18.778-8.522,9.176-15.032,16.68-20.015,23.648-0.336-1.133.278-2.594,2.045-5.871L352.735,312.34Z"/>
  <path id="Pfeil_5_1_Kopie_3" data-name="Pfeil 5 1 Kopie 3" class="cls-2" d="M216.983,326.63l72.588-1.179c-3.515-1.033-5.268-1.716-5.462-2.681,7.982,1.541,18.338,2.242,30.849,2.857-12.485.986-22.355,2.1-30.74,3.859,0.519-1.061,1.96-1.721,5.479-2.937L217,327.73Z"/>
  <path id="Pfeil_5_1_Kopie_4" data-name="Pfeil 5 1 Kopie 4" class="cls-2" d="M216.983,126.63l72.588-1.179c-3.515-1.033-5.268-1.716-5.462-2.681,7.982,1.541,18.338,2.242,30.849,2.857-12.485.986-22.355,2.1-30.74,3.859,0.519-1.061,1.96-1.721,5.479-2.937L217,127.73Z"/>
  <path id="Pfeil_5_1_Kopie_7" data-name="Pfeil 5 1 Kopie 7" class="cls-2" d="M-33.017,226.63l72.588-1.179c-3.515-1.033-5.268-1.716-5.462-2.681,7.983,1.541,18.339,2.242,30.85,2.857-12.485.986-22.355,2.1-30.74,3.859,0.52-1.061,1.96-1.721,5.48-2.937L-33,227.73Z"/>
  <path id="Pfeil_5_1_Kopie_8" data-name="Pfeil 5 1 Kopie 8" class="cls-2" d="M447.983,226.63l72.588-1.179c-3.515-1.033-5.268-1.716-5.462-2.681,7.982,1.541,18.338,2.242,30.849,2.857-12.485.986-22.355,2.1-30.74,3.859,0.519-1.061,1.96-1.721,5.479-2.937L448,227.73Z"/>
  <text id="B" class="cls-3" x="11.239" y="213.184">B</text>
  <text id="T" class="cls-3" x="101.24" y="163.184">T</text>
  <text id="P" class="cls-3" x="101.24" y="313.184">P</text>
  <text id="V" class="cls-3" x="251.24" y="373.184">V</text>
  <text id="T-2" data-name="T" class="cls-3" x="177.239" y="435.185">T</text>
  <text id="S" class="cls-3" x="197.239" y="56.184">S</text>
  <text id="X" class="cls-3" x="248.24" y="119.185">X</text>
  <text id="X-2" data-name="X" class="cls-3" x="248.24" y="209.185">X</text>
  <text id="P-2" data-name="P" class="cls-3" x="338.24" y="249.185">P</text>
  <text id="S-2" data-name="S" class="cls-3" x="382.24" y="159.185">S</text>
  <text id="V-2" data-name="V" class="cls-3" x="382.24" y="325.185">V</text>
  <text id="E" class="cls-3" x="472.24" y="220.185">E</text>
  <path id="Pfeil_5_1_Kopie_5" data-name="Pfeil 5 1 Kopie 5" class="cls-2" d="M332.239,297.627L330.4,184.656c-1.608,5.471-2.67,8.2-4.173,8.5,2.4-12.424,3.49-28.541,4.447-48.012,1.535,19.43,3.273,34.792,6.006,47.842-1.652-.808-2.678-3.05-4.571-8.528l1.838,113.14Z"/>
  <path id="Pfeil_5_1_Kopie_6" data-name="Pfeil 5 1 Kopie 6" class="cls-2" d="M313.881,142.28L230.509,267.2c5.893-4.768,9.115-6.948,10.988-6.143-12.012,11.773-25.387,28.572-41.148,49.14,13.006-22.407,22.715-40.519,29.589-56.855,1.2,2.133.623,5.36-1.447,12.781l83.5-125.108Z"/>
  <path class="cls-4" d="M206,60c16.569,0,30,13.655,30,30.5S222.569,121,206,121s-30-13.655-30-30.5S189.431,60,206,60ZM190,85"/>
  <path id="Pfeil_6_1" data-name="Pfeil 6 1" class="cls-5" d="M166.421,82.854l9.454,2.066,8.288-5L178.546,101.1Z"/>
  <path id="Ellipse_3_Kopie" data-name="Ellipse 3 Kopie" class="cls-4" d="M194.855,390.853c-15.619,5.527-32.836-2.865-38.456-18.745s2.488-33.234,18.108-38.761,32.836,2.866,38.456,18.746S210.475,385.326,194.855,390.853Zm6.744-28.905"/>
  <path id="Pfeil_6_1_Kopie" data-name="Pfeil 6 1 Kopie" class="cls-5" d="M224.544,356.106l-9.6,1.206-6.147,7.474-1.767-21.832Z"/>
  <circle class="cls-1" cx="188.5" cy="124.5" r="28.5"/>
  <circle class="cls-1" cx="188.5" cy="324.5" r="28.5"/>
  <circle id="Ellipse_2_Kopie" data-name="Ellipse 2 Kopie" class="cls-1" cx="331.5" cy="124.5" r="28.5"/>
  <circle id="Ellipse_2_Kopie_2" data-name="Ellipse 2 Kopie 2" class="cls-1" cx="331.5" cy="324.5" r="28.5"/>
</svg>
